# xmcd
#
# Track frame offsets:
#   150
#   18229
#   31075
#   49185
#   66384
#   82948
#   96961
#   114940
#   131106
#   149216
#   167022
#   183748
#   205334
#   224129
#   240373
#
# Disc length: 3410 seconds
#
# Revision: 0
# Processed by: cddbd v1.5.2PL0 Copyright (c) Steve Scherf et al.
# Submitted via: uFREEDB ActiveX Control 1.5
#
DISCID=de0d500f
DTITLE=Os Serranos - Sucessos Gaúchos Vol3
DYEAR=1900
DGENRE=Country
TTITLE0=Cantador de Campanha
TTITLE1=Nheco-Vari, Nheco-Fum
TTITLE2=Dançador de Xote
TTITLE3=Todo Mundo Veio Pro Rodeio
TTITLE4=Batendo Água
TTITLE5=Coplas de Um Viramundo
TTITLE6=Barraca e Fronteira
TTITLE7=Bugio Novo
TTITLE8=Fandango em Soledade
TTITLE9=Mensagem de Saudade
TTITLE10=Vaneira Grossa
TTITLE11=Do Fundo da Grota
TTITLE12=O Casamento da Doralice
TTITLE13=Sentimento
TTITLE14=Não Sou Convencido
EXTD=
EXTT0=
EXTT1=
EXTT2=
EXTT3=
EXTT4=
EXTT5=
EXTT6=
EXTT7=
EXTT8=
EXTT9=
EXTT10=
EXTT11=
EXTT12=
EXTT13=
EXTT14=
PLAYORDER=
